<?xml version="1.0" encoding="UTF-8"?>
<svg version="1.1" xmlns="http://www.w3.org/2000/svg" width="1080" height="1080">
<path d="M0 0 C0.83144531 0.62648438 1.66289063 1.25296875 2.51953125 1.8984375 C43.65745028 33.87353278 70.89448778 83.07623697 77.62109375 134.59375 C84.13964424 189.12685696 69.45521176 243.21872541 35.76464844 286.59033203 C2.76502985 328.32667104 -44.45086906 354.61314524 -96.90234375 362.59375 C-136.76347483 367.09606853 -175.77788698 361.37749818 -212 344 C-212.81694336 343.60941406 -213.63388672 343.21882813 -214.47558594 342.81640625 C-263.26841818 319.12868029 -300.08404655 275.43152808 -317.859375 224.53955078 C-335.39949211 172.8189578 -330.51759418 116.92335024 -306.65625 68.1640625 C-298.66492813 52.25011665 -288.74829996 38.32944832 -277 25 C-276.35160156 24.24074219 -275.70320313 23.48148437 -275.03515625 22.69921875 C-267.39210376 13.77365858 -259.02354018 6.37796554 -249.69140625 -0.71435547 C-248.20471315 -1.84439673 -246.72664436 -2.98576538 -245.25 -4.12890625 C-173.42188965 -58.32847122 -70.10124141 -55.33793952 0 0 Z " fill="#666666" transform="translate(677,392)"/>
<path d="M0 0 C1.41883177 0.44151761 2.83812066 0.88156833 4.2578125 1.3203125 C37.62520145 12.00891614 63.18992447 35.67797665 79.35449219 66.4921875 C94.10144349 95.83134769 95.98380591 130.50429373 85.9375 161.5625 C80.54164698 177.29651574 72.75848722 191.33046571 62 204 C61.29875 204.84046875 60.5975 205.6809375 59.875 206.546875 C39.39567933 230.38608422 8.64846622 245.32245089 -22.4375 248.75 C-24.28994577 248.86542595 -26.14479773 248.94429549 -28 249 C-28.65581055 249.02046387 -29.31162109 249.04092773 -29.98730469 249.06201172 C-63.9238752 249.97656072 -95.70408918 238.64759721 -120.57421875 215.32421875 C-121.37472656 214.55722656 -122.17523438 213.79023437 -123 213 C-123.89332031 212.18144531 -124.78664063 211.36289062 -125.70703125 210.51953125 C-140.22135729 196.77659596 -149.44047645 179.12529976 -155.875 160.375 C-156.16141357 159.55306152 -156.44782715 158.73112305 -156.74291992 157.88427734 C-160.72138423 145.70120258 -161.34421621 133.29338852 -161.3125 120.5625 C-161.32861328 119.27279297 -161.34472656 117.98308594 -161.36132812 116.65429688 C-161.37804195 83.27679681 -145.2133712 53.42450879 -122.375 29.9375 C-115.58785995 23.14576037 -108.24891635 17.86870518 -100 13 C-99.39575195 12.63680664 -98.79150391 12.27361328 -98.16894531 11.89941406 C-70.19236192 -4.71215211 -31.19141866 -10.61695223 0 0 Z " fill="#FDFDFD" transform="translate(588,431)"/>
<path d="M0 0 C15.18 0 30.36 0 46 0 C51.8294288 19.82005793 54.78374084 37.41760181 51.75 57.6875 C51.64083252 58.43491455 51.53166504 59.1823291 51.41918945 59.95239258 C50.29631859 66.7286421 48.24536405 72.26390784 46 79 C30.82 79 15.64 79 0 79 C1 68 1 68 1.30981445 64.63793945 C2.03036226 56.15416428 2.19654463 47.69635812 2.1875 39.1875 C2.1882251 38.48577667 2.1889502 37.78405334 2.18969727 37.06106567 C2.18865985 27.96387136 1.93442862 19.05056079 0.4375 10.05859375 C0 7 0 7 0 0 Z " fill="#666666" transform="translate(613,513)"/>
<path d="M0 0 C0.79719955 0.00222061 1.59439911 0.00444122 2.41575623 0.00672913 C3.31661453 0.00680466 4.21747284 0.00688019 5.14562988 0.00695801 C6.12478867 0.01211929 7.10394745 0.01728058 8.11277771 0.02259827 C9.11018478 0.02401321 10.10759186 0.02542816 11.13522339 0.02688599 C14.3348027 0.03250337 17.53431315 0.04505881 20.73387146 0.05775452 C22.89728191 0.06276728 25.06069345 0.06733057 27.22410583 0.07142639 C32.53988471 0.08247845 37.85562317 0.09923348 43.17137146 0.12025452 C42.94397064 4.10702637 42.71030897 8.09336471 42.45970154 12.07875061 C42.41783218 12.75167145 42.37596283 13.42459229 42.33282471 14.11790466 C42.16596443 16.18731277 41.90427689 18.2278881 41.62059021 20.28431702 C40.9490296 26.01886068 40.98080671 31.72624786 40.98387146 37.49525452 C40.98322693 38.75426575 40.9825824 40.01327698 40.98191833 41.31044006 C41.05163898 53.99088148 42.04257613 66.49185681 43.17137146 79.12025452 C27.99137146 79.12025452 12.81137146 79.12025452 -2.82862854 79.12025452 C-6.8988321 65.55290932 -9.09801368 53.9718231 -9.14112854 39.87025452 C-9.14652649 38.79388733 -9.15192444 37.71752014 -9.15748596 36.60853577 C-9.06932425 26.5872324 -7.59511307 17.03839401 -4.76612854 7.43275452 C-4.42452698 6.25326233 -4.08292542 5.07377014 -3.73097229 3.85853577 C-2.5139506 0.16532276 -2.5139506 0.16532276 0 0 Z " fill="#666666" transform="translate(449.82862854003906,512.8797454833984)"/>
<path d="M0 0 C12.87 0 25.74 0 39 0 C42.58779176 23.7691204 46.80313088 55.59060737 39 79 C26.13 79 13.26 79 0 79 C0 52.93 0 26.86 0 0 Z " fill="#676767" transform="translate(560,513)"/>
<path d="M0 0 C12.87 0 25.74 0 39 0 C39 26.07 39 52.14 39 79 C26.13 79 13.26 79 0 79 C-2.30558345 61.70812413 -2.30558345 61.70812413 -2.265625 52.8515625 C-2.26753845 51.86989105 -2.2694519 50.8882196 -2.27142334 49.87680054 C-2.2727685 47.82509094 -2.26919072 45.77337233 -2.26074219 43.72167969 C-2.25004221 40.63716874 -2.26068355 37.55324313 -2.2734375 34.46875 C-2.27211516 32.45051959 -2.26955123 30.43228953 -2.265625 28.4140625 C-2.26967346 27.52079254 -2.27372192 26.62752258 -2.27789307 25.70718384 C-2.21579701 16.92832841 -1.04737416 8.90268032 0 0 Z " fill="#666666" transform="translate(507,513)"/>
<path d="M0 0 C13.86 0 27.72 0 42 0 C42.99 3.42375 43.98 6.8475 45 10.375 C49.48533416 25.35951228 55.14828336 39.06879657 64 52 C64.33 52.66 64.66 53.32 65 54 C44.70225072 51.68478797 24.2283454 34.21269538 11.6875 19 C2.19692522 6.59077565 2.19692522 6.59077565 0 0 Z " fill="#676767" transform="translate(454,606)"/>
<path d="M0 0 C13.86 0 27.72 0 42 0 C32.70527911 23.23680224 10.66640337 40.37829799 -11.484375 50.609375 C-19.44662921 54 -19.44662921 54 -22 54 C-20.60271429 51.16492172 -19.13059012 48.38364116 -17.609375 45.61328125 C-9.46963592 30.59957248 -4.16558477 16.66233908 0 0 Z " fill="#686868" transform="translate(610,606)"/>
<path d="M0 0 C-0.61875 0.78697266 -0.61875 0.78697266 -1.25 1.58984375 C-10.72003219 14.29406104 -15.98070621 28.75140521 -20.34912109 43.84448242 C-21.17542533 46.58095659 -22.09606031 49.28818094 -23 52 C-36.53 52 -50.06 52 -64 52 C-54.35965213 27.89913033 -30.72484192 11.5353624 -8 1 C-2.37946719 -1.18973359 -2.37946719 -1.18973359 0 0 Z " fill="#676767" transform="translate(519,447)"/>
<path d="M0 0 C25.60215849 4.48881694 46.55334693 25.5928513 60.86328125 45.828125 C63 49 63 49 65 53 C51.14 53 37.28 53 23 53 C22.05125 49.638125 21.1025 46.27625 20.125 42.8125 C17.65004868 34.44623877 14.70712958 26.49544294 10.9375 18.625 C10.53869629 17.7894458 10.13989258 16.9538916 9.72900391 16.09301758 C6.91995928 10.41500356 3.6258024 5.19037694 0 0 Z " fill="#676767" transform="translate(587,446)"/>
<path d="M0 0 C11.88 0 23.76 0 36 0 C31.4378054 20.52987569 23.49116245 43.08185879 5.859375 55.94140625 C4 57 4 57 0 58 C0 38.86 0 19.72 0 0 Z " fill="#676767" transform="translate(560,606)"/>
<path d="M0 0 C11.88 0 23.76 0 36 0 C36 19.14 36 38.28 36 58 C21.86718056 52.34687222 14.58172963 40.2649584 8.65649414 26.82104492 C0 6.29337278 0 6.29337278 0 0 Z " fill="#666666" transform="translate(510,606)"/>
<path d="M0 0 C16.52569604 6.61027842 23.54094199 22.59598653 30.3203125 38 C32.94115996 44.36768864 35 50.0367198 35 57 C23.45 57 11.9 57 0 57 C0 38.19 0 19.38 0 0 Z " fill="#676767" transform="translate(560,442)"/>
<path d="M0 0 C0 18.81 0 37.62 0 57 C-11.55 57 -23.1 57 -35 57 C-34.27146583 51.17172661 -33.45247153 46.68780144 -31.375 41.375 C-31.11066162 40.68913818 -30.84632324 40.00327637 -30.57397461 39.29663086 C-24.9299125 24.97294767 -17.52799713 9.04385021 -3.625 1.0625 C-1 0 -1 0 0 0 Z " fill="#676767" transform="translate(546,442)"/>
</svg>
